<svg xmlns="http://www.w3.org/2000/svg" width="1200" height="800" viewBox="0 0 1200 800">
  <defs>
    <linearGradient id="bg" x1="0" y1="0" x2="1" y2="1">
      <stop offset="0" stop-color="#0b2240"/><stop offset="0.6" stop-color="#0a4788"/><stop offset="1" stop-color="#003366"/>
    </linearGradient>
    <radialGradient id="glow" cx="0.7" cy="0.2" r="0.8">
      <stop offset="0" stop-color="#d4af37" stop-opacity="0.35"/><stop offset="1" stop-color="#d4af37" stop-opacity="0"/>
    </radialGradient>
  </defs>
  <rect width="1200" height="800" fill="url(#bg)"/>
  <rect width="1200" height="800" fill="url(#glow)"/>
  <g opacity="0.06"><path d="M0 264 H1200 M0 528 H1200 M396 0 V800 M792 0 V800" stroke="#fff" stroke-width="2"/></g>
  <g transform="translate(600 368)">
    <circle r="224.00000000000003" fill="#fff" opacity="0.05"/>
    <g transform="scale(0.975609756097561)">
    <g>
      <rect x="-104" y="-128" width="208" height="256" rx="40" fill="#0a3d6e" opacity="0.95"/>
      <path d="M24 -84 L-40 -8 H4 L-24 84 L52 -12 H8 Z" fill="url(#accentGrad)"/>
      <rect x="-60" y="-104" width="44" height="20" rx="10" fill="#d4af37" opacity="0.5"/>
      <rect x="-88" y="-128" width="26" height="60" rx="8" fill="#d4af37" opacity="0.35"/>
    </g></g>
  </g>
  <rect x="0" y="710" width="1200" height="90" fill="#001a33" opacity="0.85"/>
  <text x="600" y="752" font-family="Arial,Helvetica,sans-serif" font-size="31" font-weight="700" fill="#ffffff" text-anchor="middle">Showroom Display Zone</text>
  <text x="600" y="780" font-family="Arial,Helvetica,sans-serif" font-size="15" letter-spacing="3" fill="#e4c566" text-anchor="middle">Brand · Peshawar</text>
</svg>