<svg xmlns="http://www.w3.org/2000/svg" width="1200" height="800" viewBox="0 0 1200 800">
  <defs>
    <linearGradient id="bg" x1="0" y1="0" x2="1" y2="1">
      <stop offset="0" stop-color="#0b2240"/><stop offset="0.6" stop-color="#0a4788"/><stop offset="1" stop-color="#003366"/>
    </linearGradient>
    <radialGradient id="glow" cx="0.7" cy="0.2" r="0.8">
      <stop offset="0" stop-color="#7ec89b" stop-opacity="0.35"/><stop offset="1" stop-color="#7ec89b" stop-opacity="0"/>
    </radialGradient>
  </defs>
  <rect width="1200" height="800" fill="url(#bg)"/>
  <rect width="1200" height="800" fill="url(#glow)"/>
  <g opacity="0.06"><path d="M0 264 H1200 M0 528 H1200 M396 0 V800 M792 0 V800" stroke="#fff" stroke-width="2"/></g>
  <g transform="translate(600 368)">
    <circle r="224.00000000000003" fill="#fff" opacity="0.05"/>
    <g transform="scale(0.975609756097561)">
    <g>
      <rect x="-92" y="-120" width="184" height="240" rx="46" fill="#0a3d6e" opacity="0.95"/>
      <rect x="-62" y="-92" width="124" height="120" rx="30" fill="#0d1b2a"/>
      <circle cy="-32" r="30" fill="url(#accentGrad)"/>
      <circle cy="-32" r="12" fill="#fff"/>
      <path d="M-40 -150 q40 30 0 56 q-40 30 0 56 M40 -150 q-40 30 0 56 q40 30 0 56" fill="none" stroke="#7ec89b" stroke-width="12" stroke-linecap="round" opacity="0.85"/>
      <circle cy="52" r="10" fill="#4ade80"/>
      <rect x="-34" y="40" width="68" height="24" rx="12" fill="#7ec89b" opacity="0.35"/>
    </g></g>
  </g>
  <rect x="0" y="710" width="1200" height="90" fill="#001a33" opacity="0.85"/>
  <text x="600" y="752" font-family="Arial,Helvetica,sans-serif" font-size="31" font-weight="700" fill="#ffffff" text-anchor="middle">Office Security System</text>
  <text x="600" y="780" font-family="Arial,Helvetica,sans-serif" font-size="15" letter-spacing="3" fill="#e4c566" text-anchor="middle">Sensors · Peshawar</text>
</svg>