<svg xmlns="http://www.w3.org/2000/svg" width="1200" height="630" viewBox="0 0 1200 630">
  <defs>
    <linearGradient id="bg" x1="0" y1="0" x2="1" y2="1">
      <stop offset="0" stop-color="#001a33"/>
      <stop offset="0.55" stop-color="#003366"/>
      <stop offset="1" stop-color="#0a4788"/>
    </linearGradient>
    <linearGradient id="gold" x1="0" y1="0" x2="1" y2="1">
      <stop offset="0" stop-color="#e4c566"/>
      <stop offset="1" stop-color="#b3922a"/>
    </linearGradient>
    <radialGradient id="glow" cx="0.85" cy="0.1" r="0.9">
      <stop offset="0" stop-color="#d4af37" stop-opacity="0.25"/>
      <stop offset="1" stop-color="#d4af37" stop-opacity="0"/>
    </radialGradient>
  </defs>
  <rect width="1200" height="630" fill="url(#bg)"/>
  <rect width="1200" height="630" fill="url(#glow)"/>
  <rect width="1200" height="8" fill="url(#gold)"/>
  <g opacity="0.06">
    <path d="M0 200 H1200 M0 400 H1200 M300 0 V630 M600 0 V630 M900 0 V630" stroke="#ffffff" stroke-width="1.5"/>
  </g>
  <circle cx="1080" cy="120" r="150" fill="none" stroke="#d4af37" stroke-opacity="0.2" stroke-width="2"/>
  <circle cx="1080" cy="120" r="100" fill="none" stroke="#d4af37" stroke-opacity="0.3" stroke-width="2"/>
  <g transform="translate(90 200) scale(3)">
    <path d="M32 3 L55 11 V30 C55 45 45 55 32 61 C19 55 9 45 9 30 V11 Z" fill="none" stroke="#d4af37" stroke-width="2"/>
    <path d="M35.6 13 L22.6 34.4 H30.2 L27.6 49 L40.6 27.6 H33 Z" fill="#d4af37"/>
  </g>
  <text x="210" y="255" font-family="Arial, Helvetica, sans-serif" font-size="34" font-weight="700" letter-spacing="6" fill="#e4c566">PEARL</text>
  <text x="210" y="300" font-family="Arial, Helvetica, sans-serif" font-size="52" font-weight="800" fill="#ffffff">ELECTRIC SOLUTIONS</text>
  <text x="214" y="336" font-family="Arial, Helvetica, sans-serif" font-size="18" letter-spacing="14" fill="#ffffff" opacity="0.75">POWERING EVERYDAY LIFE</text>
  <text x="210" y="470" font-family="Arial, Helvetica, sans-serif" font-size="24" font-weight="700" fill="#ffffff">Premium Ceiling Fans · LED Lighting</text>
  <text x="210" y="505" font-family="Arial, Helvetica, sans-serif" font-size="24" font-weight="700" fill="#ffffff">Smart Sensors · Electrical Safety</text>
  <g transform="translate(900 480)">
    <text x="0" y="0" font-family="Arial, Helvetica, sans-serif" font-size="16" fill="#e4c566" text-anchor="middle">EST. 1998</text>
    <text x="0" y="26" font-family="Arial, Helvetica, sans-serif" font-size="16" fill="#ffffff" text-anchor="middle">Peshawar · Pakistan</text>
  </g>
</svg>
