<svg xmlns="http://www.w3.org/2000/svg" width="1200" height="630" viewBox="0 0 1200 630">
  <defs>
    <linearGradient id="bg" x1="0" y1="0" x2="1" y2="1">
      <stop offset="0" stop-color="#001a33"/>
      <stop offset="0.55" stop-color="#0a2a4a"/>
      <stop offset="1" stop-color="#0f3b66"/>
    </linearGradient>
    <linearGradient id="orange" x1="0" y1="0" x2="1" y2="1">
      <stop offset="0" stop-color="#ff9a3c"/>
      <stop offset="1" stop-color="#f5701d"/>
    </linearGradient>
    <radialGradient id="glow" cx="0.85" cy="0.1" r="0.9">
      <stop offset="0" stop-color="#ff8c2e" stop-opacity="0.22"/>
      <stop offset="1" stop-color="#ff8c2e" stop-opacity="0"/>
    </radialGradient>
  </defs>
  <rect width="1200" height="630" fill="url(#bg)"/>
  <rect width="1200" height="630" fill="url(#glow)"/>
  <rect width="1200" height="8" fill="url(#orange)"/>
  <g opacity="0.05">
    <path d="M0 200 H1200 M0 400 H1200 M300 0 V630 M600 0 V630 M900 0 V630" stroke="#ffffff" stroke-width="1.5"/>
  </g>
  <circle cx="1080" cy="120" r="150" fill="none" stroke="#ff8c2e" stroke-opacity="0.2" stroke-width="2"/>
  <circle cx="1080" cy="120" r="100" fill="none" stroke="#ff8c2e" stroke-opacity="0.3" stroke-width="2"/>
  <!-- speed lines -->
  <g stroke="#ff8c2e" stroke-width="6" stroke-linecap="round">
    <line x1="180" y1="150" x2="300" y2="150"/>
    <line x1="240" y1="175" x2="300" y2="175"/>
  </g>
  <text x="180" y="250" font-family="Arial, Helvetica, sans-serif" font-size="74" font-weight="800" letter-spacing="2" fill="#ffffff">RESPAK</text>
  <text x="180" y="330" font-family="Arial, Helvetica, sans-serif" font-size="60" font-weight="700" letter-spacing="8" fill="#ff8c2e">EXPRESS</text>
  <text x="184" y="380" font-family="Arial, Helvetica, sans-serif" font-size="20" letter-spacing="10" fill="#ffffff" opacity="0.8">GENUINE ELECTRICAL PRODUCTS</text>
  <text x="210" y="470" font-family="Arial, Helvetica, sans-serif" font-size="24" font-weight="700" fill="#ffffff">Premium Ceiling Fans · LED Lighting</text>
  <text x="210" y="505" font-family="Arial, Helvetica, sans-serif" font-size="24" font-weight="700" fill="#ffffff">Smart Sensors · Electrical Safety</text>
  <g transform="translate(900 480)">
    <text x="0" y="0" font-family="Arial, Helvetica, sans-serif" font-size="16" fill="#ff8c2e" text-anchor="middle">SAME-DAY DELIVERY</text>
    <text x="0" y="26" font-family="Arial, Helvetica, sans-serif" font-size="16" fill="#ffffff" text-anchor="middle">Peshawar · Pakistan</text>
  </g>
</svg>
